# xmcd CD database file
#
# Track frame offsets:
#	182
#	30625
#	75452
#	131512
#	185400
#	221185
#	253927
#
# Disc length: 4300 seconds
#
# Revision: 0
# Processed by: cddbd v1.5.1PL0 Copyright (c) Steve Scherf et al.
# Submitted via: CDex 1.50
#
DISCID=5f10ca07
DTITLE=Yusef Lateef - Tenors of Yusef Lateef and Ricky Ford
DYEAR=1994
DGENRE=Jazz
TTITLE0=Brother Moody
TTITLE1=Brother Turrentine
TTITLE2=IBN YL
TTITLE3=Brother Rollins
TTITLE4=Brother Heath
TTITLE5=Brother Shorter
TTITLE6=Brother Henderson
EXTD=YEAR: 1994
EXTT0=
EXTT1=
EXTT2=
EXTT3=
EXTT4=
EXTT5=
EXTT6=
PLAYORDER=
